<svg height="512pt" viewBox="-47 0 512 512" width="512pt" xmlns="http://www.w3.org/2000/svg"><path d="m200.148438 125.726562h3.917968c1.195313 10.640626 10.25 18.945313 21.214844 18.945313h14.480469c11.777343 0 21.359375-9.578125 21.359375-21.347656v-15.195313c0-.742187.613281-1.347656 1.363281-1.347656h15.335937c.75 0 1.363282.605469 1.363282 1.347656v15.195313c0 .742187-.613282 1.347656-1.363282 1.347656h-1.402343c-5.523438 0-10 4.476563-10 10s4.476562 10 10 10h1.402343c10.964844 0 20.015626-8.300781 21.21875-18.945313h3.914063c5.519531 0 10-4.476562 10-10 0-5.523437-4.480469-10-10-10h-3.914063c-1.199218-10.640624-10.253906-18.945312-21.21875-18.945312h-15.335937c-11.777344 0-21.363281 9.574219-21.363281 21.347656v15.195313c0 .742187-.609375 1.347656-1.359375 1.347656h-14.480469c-.75 0-1.359375-.605469-1.359375-1.347656v-15.195313c0-.742187.609375-1.347656 1.359375-1.347656 5.523438 0 10-4.476562 10-10s-4.476562-10-10-10c-10.964844 0-20.015625 8.300781-21.214844 18.945312h-3.914062c-5.523438 0-10 4.476563-10 10 0 5.519532 4.476562 10 9.996094 10zm0 0"/><path d="m409.851562 324.425781-57.195312-76.601562v-96.289063c0-.042968.003906-.082031.003906-.125v-54.398437h36.410156c13.890626 0 25.191407-11.296875 25.191407-25.183594v-46.648437c0-13.882813-11.300781-25.179688-25.191407-25.179688h-272.007812c-13.886719 0-25.183594 11.296875-25.183594 25.179688v46.648437c0 13.886719 11.296875 25.183594 25.183594 25.183594h33.375v105.539062l-49.535156-52.910156c-1.894532-2.019531-4.535156-3.167969-7.300782-3.167969-2.769531 0-5.410156 1.148438-7.300781 3.167969l-83.601562 89.289063c-2.7226565 2.910156-3.457031 7.15625-1.875 10.8125 1.585937 3.65625 5.191406 6.019531 9.175781 6.019531h37.839844v33.007812c0 5.519531 4.476562 10 10 10 5.523437 0 10-4.480469 10-10v-43.007812c0-2.652344-1.054688-5.195313-2.929688-7.070313s-4.417968-2.929687-7.070312-2.929687h-24.777344l60.539062-64.65625 60.535157 64.65625h-27.8125c-5.523438 0-10 4.480469-10 10v132.464843h-48.484375v-11.457031c0-5.523437-4.480469-10-10-10-5.523438 0-10 4.476563-10 10v21.457031c0 5.523438 4.476562 10 10 10h68.484375c5.519531 0 10-4.476562 10-10v-132.460937h14.113281v56.648437c0 5.523438 4.476562 10 10 10h36.152344c.023437 0 .050781-.003906.074218-.003906h54.164063v110.519532h-12.183594c-5.523437 0-10 4.480468-10 10v59.070312c0 5.523438 4.476563 10 10 10h145.800781c5.519532 0 10-4.476562 10-10v-59.066406c0-5.523438-4.480468-10-10-10h-10.753906c.375-1.367188.871094-2.699219 1.492188-3.972656l37.949218-58.1875c.191407-.289063.363282-.589844.523438-.894532 7.453125-14.523437 5.960938-32.359375-3.804688-45.453125zm-35.40625 167.574219h-125.796874v-39.066406h125.796874zm-204.003906-404.988281v-8.925781c4.363282-5.757813 9.765625-11.003907 16.117188-15.65625h130.796875c5.957031 4.363281 11.085937 9.261718 15.300781 14.609374v71.039063c-16.894531 21.441406-47.476562 34.640625-80.703125 34.640625-33.898437 0-64.796875-13.605469-81.511719-35.691406zm162.179688 215.398437h-14.164063c2.65625-6.390625 7.773438-11.507812 14.164063-14.164062zm-16.273438 20.003906h16.273438v21.824219c0 2.171875-.847656 4.214844-2.382813 5.75-1.535156 1.535157-3.574219 2.382813-5.746093 2.382813-4.492188 0-8.144532-3.648438-8.144532-8.132813zm-199.285156-245.402343c-2.859375 0-5.183594-2.324219-5.183594-5.183594v-46.648437c0-2.855469 2.324219-5.179688 5.183594-5.179688h272.007812c2.863282 0 5.191407 2.324219 5.191407 5.179688v46.648437c0 2.859375-2.328125 5.183594-5.191407 5.183594h-36.410156v-14.585938h17.207032c5.523437 0 10-4.476562 10-10 0-5.523437-4.476563-10-10-10h-233.59375c-5.523438 0-10 4.476563-10 10 0 5.523438 4.476562 10 10 10h14.164062v14.585938zm53.375 225.398437v-14.164062c6.390625 2.65625 11.507812 7.773437 14.164062 14.164062zm80.390625 0h-45.34375c-3.867187-17.433594-17.617187-31.179687-35.046875-35.046875v-11.601562h6.761719c3.980469 0 7.585937-2.363281 9.171875-6.019531.992187-2.285157 1.074218-4.800782.335937-7.078126-.445312-1.367187-1.1875-2.648437-2.210937-3.738281l-14.058594-15.019531v-48.414062c21.09375 17.171874 50.351562 27.226562 81.515625 27.226562 30.65625 0 59.640625-9.824219 80.703125-26.589844v74.132813c-.023438.277343-.035156.554687-.035156.835937v16.265625c-5.992188 1.328125-11.542969 3.824219-16.414063 7.234375-.699219-7.59375-3.992187-14.644531-9.445312-20.101562-6.179688-6.195313-14.40625-9.605469-23.171875-9.605469h-.003906c-18.0625 0-32.757813 14.695313-32.757813 32.757813zm145.246094 57.910156-37.949219 58.1875c-.1875.289063-.363281.585938-.519531.890626-2.171875 4.230468-3.632813 8.824218-4.3125 13.53125h-82.464844v-155.28125c0-7.152344 5.605469-12.757813 12.757813-12.757813 3.410156 0 6.609374 1.324219 9.019531 3.742187 2.410156 2.410157 3.742187 5.613282 3.742187 9.015626v34.761718.058594 31.769531c0 15.511719 12.625 28.132813 28.144532 28.132813 7.511718 0 14.578124-2.925782 19.890624-8.238282s8.238282-12.378906 8.238282-19.894531v-31.113281c.015625-.238281.035156-.472656.035156-.714844v-31.15625l41.167969 55.136719c5.136719 6.886719 6.003906 16.230469 2.25 23.929687zm0 0"/><path d="m48.605469 331.871094c1.582031 3.792968 5.429687 6.296875 9.546875 6.164062 3.992187-.128906 7.644531-2.722656 9.039062-6.472656 1.476563-3.964844.277344-8.5625-3.011718-11.25-3.332032-2.722656-8.136719-2.988281-11.757813-.671875-4.03125 2.582031-5.621094 7.820313-3.816406 12.230469zm0 0"/></svg>