
        <svg xmlns="http://www.w3.org/2000/svg" xmlns:xlink="http://www.w3.org/1999/xlink" version="1.1" width="3272.7272727272725" height="2626.533803591749" viewBox="0 0 3272.7272727272725 2626.533803591749">
			
			<g transform="scale(13.636363636363635) translate(10, 10)">
				<defs id="SvgjsDefs1221"/><g id="SvgjsG1222" featureKey="symbolFeature-0" transform="matrix(1.5187499523162842,0,0,1.5187499523162842,34.21875,-27.337500000000002)" fill="#fff"><g xmlns="http://www.w3.org/2000/svg" transform="translate(0,-952.36218)"><path style="font-size:medium;font-style:normal;font-variant:normal;font-weight:normal;font-stretch:normal;text-indent:0;text-align:start;text-decoration:none;line-height:normal;letter-spacing:normal;word-spacing:normal;text-transform:none;direction:ltr;block-progression:tb;writing-mode:lr-tb;text-anchor:start;baseline-shift:baseline;opacity:1;color:;fill:#5c5470;fill-opacity:1;stroke:none;stroke-width:2.00000072000000010;marker:none;visibility:visible;display:inline;overflow:visible;enable-background:accumulate;font-family:Sans;-inkscape-font-specification:Sans" d="M 34 18 L 34 19 L 34 41 L 20 41 L 19 41 L 19 42 L 19 80 L 15 80 L 15 82 L 85 82 L 85 80 L 66 80 L 66 43 L 79 43 L 79 74 L 81 74 L 81 42 L 81 41 L 80 41 L 66 41 L 66 19 L 66 18 L 65 18 L 35 18 L 34 18 z M 36 20 L 64 20 L 64 80 L 59 80 L 59 58.96875 L 59 57.96875 L 58 57.96875 L 42 57.96875 L 41 57.96875 L 41 58.96875 L 41 80 L 36 80 L 36 20 z M 49 24 L 49 27.0625 C 47.550218 27.200259 46.225602 27.619998 45.1875 28.3125 C 43.912265 29.16319 43.025667 30.45932 43 31.96875 L 43 32 C 43 34.03571 44.011885 35.52409 45.34375 36.375 C 46.675615 37.22591 48.25 37.59375 49.75 37.96875 C 51.25 38.34375 52.675615 38.72591 53.59375 39.3125 C 54.503784 39.89391 54.991343 40.53178 55 41.96875 C 55.000077 41.98155 55 41.9871 55 42 C 54.97691 42.73776 54.552676 43.42285 53.6875 44 C 52.810927 44.58475 51.5041 45 50 45 C 47.232325 45 45.809193 43.33714 44.90625 41.53125 L 43.09375 42.4375 C 44.084354 44.418704 45.988005 46.544084 49 46.9375 L 49 50 L 51 50 L 51 46.96875 C 52.449862 46.823311 53.77435 46.348784 54.8125 45.65625 C 56.087735 44.80556 56.974333 43.50943 57 42 C 57 39.96429 55.988115 38.47591 54.65625 37.625 C 53.324385 36.77409 51.75 36.40625 50.25 36.03125 C 48.75 35.65625 47.324385 35.27409 46.40625 34.6875 C 45.488115 34.10101 45 33.46429 45 32 C 45.01273 31.2512 45.435927 30.5535 46.3125 29.96875 C 47.189073 29.384 48.4959 29 50 29 C 52.767675 29 54.190807 30.63161 55.09375 32.4375 L 56.90625 31.53125 C 55.915646 29.550046 54.011995 27.482222 51 27.09375 L 51 24 L 49 24 z M 21 43 L 34 43 L 34 80 L 21 80 L 21 43 z M 43 59.96875 L 57 59.96875 L 57 80 L 43 80 L 43 59.96875 z " transform="translate(0,952.36218)"/></g></g><g id="SvgjsG1223" featureKey="nameFeature-0" transform="matrix(1.5562740564346313,0,0,1.5562740564346313,2.674845947663655,105.71093426179226)" fill="#fff"><path d="M15.44 17.76 c0.04 4.44 -1.56 9.28 -4.92 12.44 c0.44 3.44 1.68 7.56 2.8 10.88 c-0.88 1.04 -4.04 1.88 -4.52 0.52 c-0.04 -0.2 -0.12 -0.44 -0.24 -0.72 c-1.16 0.12 -2.2 -0.2 -2.52 -1 c-0.16 -0.48 -0.4 -1.28 -0.64 -2.24 c-0.2 1.6 -0.32 3.2 -0.32 4.64 c-0.84 0.2 -3.68 -0.04 -3.96 -1.44 c-1.52 -0.28 -2.88 -1.04 -2.84 -2.32 c0.2 -5 3.48 -22.6 5 -27.4 c0.92 -1.2 3.32 -3.04 6 -2.36 c2.2 0.52 3.8 2.4 4.52 4.52 c1 1.24 1.64 2.92 1.64 4.48 z M13.24 15.760000000000002 c-0.04 -2.6 -1.72 -5.44 -4.16 -6.04 c-2.16 -0.52 -4.16 0.92 -4.92 1.84 c-1.44 4.68 -4.68 22.12 -4.88 27 c-0.04 1.44 2.6 1.68 3.6 1.56 c0.04 -3.12 0.72 -6.76 1.16 -10 c0.08 -0.52 0.64 -0.44 0.76 0.2 c0.68 3.44 1.68 7.76 2.2 9.2 c0.36 1.04 3.08 0.52 4.12 -0.48 c-1.16 -3.32 -2.36 -7.4 -2.8 -10.92 c3.4 -3.16 4.96 -7.96 4.92 -12.36 z M8.6 15.120000000000001 c1.52 3.08 0.72 5.6 -1.28 8.8 c-0.4 0.64 -1.48 1.32 -2.4 1.32 c0.72 -4.24 1.16 -6.12 2.16 -10 c0.4 -0.48 1.24 -0.64 1.52 -0.12 z M28.454 11.96 c-0.04 0.84 -0.12 4 -1.8 5 c-1 0.6 -2.52 0.24 -3.56 0.76 c-0.52 1.08 -0.88 2.16 -1.12 3.32 c0.68 0 1.36 0 2.04 -0.08 c0.08 0.92 0.08 1.96 -0.16 2.88 c0.56 0 1.08 0.04 1.44 0 c0.16 1.44 -0.48 3.32 -1.56 4.16 c-0.72 0.56 -1.88 0.4 -2.8 0.52 c-0.52 1.6 -0.84 3.52 -1 5.2 c0.84 -0.24 1.88 -0.68 3.16 -1.28 c0.36 1.32 0.32 2.6 0.08 3.72 c0.48 -0.16 0.96 -0.4 1.4 -0.6 c0.56 1.96 -0.84 4.64 -1.8 5.32 c-1.88 1.28 -5.44 2.16 -6.88 1.64 c-0.24 -0.12 -0.36 -0.48 -0.44 -1.08 c-0.72 0.04 -1.36 0 -1.84 -0.2 c-1.6 -0.6 -0.88 -6.52 -0.76 -7.88 c0.48 -5.88 1.72 -12.64 2.72 -17.16 c0.76 -3.36 1.48 -4.88 2.48 -5.56 c2.36 -1.56 5.64 -1.72 9.24 -1.4 c-0.04 0.96 -0.08 1.8 -0.2 2.64 c0.44 0.04 0.92 0.04 1.36 0.08 z M26.254 10.16 c-2.76 -0.24 -5.64 0 -7.64 1.32 c-0.6 0.4 -1.32 1.52 -2.04 4.92 c-1 4.52 -2.24 11.24 -2.72 17.04 c-0.12 1.32 -0.28 3 -0.28 4.4 c0 1.28 0 2.32 0.4 2.48 c1.32 0.52 4.84 -0.36 6.68 -1.6 c0.88 -0.6 2.16 -3.04 1.8 -4.88 c-1.36 0.64 -3.2 1.32 -4.8 1.04 c-0.12 -2.12 0.2 -5.68 1.16 -8.56 c0.8 -0.08 2.16 0.04 2.8 -0.48 c0.96 -0.76 1.56 -2.44 1.48 -3.8 c-1.24 0.08 -2.48 -0.12 -3.76 0.04 c0.24 -2.52 0.64 -4.48 1.6 -6.52 c1.16 -0.56 2.64 -0.2 3.6 -0.8 c1.36 -0.8 1.64 -3.16 1.72 -4.6 z M41.268 12.2 c-1.76 8.36 -2.2 19.48 -1.84 28.36 c-0.56 0.96 -3.92 2.68 -4.24 1.24 c-0.08 -0.28 -0.12 -0.56 -0.16 -0.84 c-1.2 0.36 -2.36 0.2 -2.64 -1 c-0.28 -1.28 -0.28 -2.52 -0.2 -3.8 l-0.52 0.12 c-0.4 1.84 -0.76 4.56 -0.92 5.72 c-0.88 0.36 -2.36 -0.2 -3.16 -1.24 c-1.84 -0.32 -3.6 -1.88 -3.24 -3.92 c1.6 -9.28 4.64 -18.6 6.84 -24.28 c1.04 -2.76 7.6 -4.52 8.92 -2.76 c-0.12 0.64 -0.24 1.48 -0.36 2.16 c0.76 -0.04 1.36 0 1.52 0.24 z M32.108000000000004 12.920000000000002 c-2.16 5.64 -5.2 14.88 -6.8 24.08 c-0.32 1.84 2.08 3.24 3.24 2.84 c0.16 -1.2 0.56 -3.8 0.96 -5.72 l3.84 -1 c-0.04 1.72 -0.16 2.8 -0.2 3.8 c-0.04 0.96 0 1.84 0.24 2.84 c0.12 0.6 0.92 0.44 1.76 0.12 c0.92 -0.32 1.8 -0.96 2.08 -1.36 c-0.36 -8.84 0.08 -19.92 1.8 -28.28 c-0.72 -0.44 -6.04 0.4 -6.92 2.68 z M33.628 28.439999999999998 c-0.96 0.24 -1.96 0.48 -3.12 0.84 c0.88 -3.48 2.08 -6.8 3.04 -10.2 c0.4 -1.52 1.2 -1.64 1.08 -0.8 c-0.48 4.16 -0.76 7.28 -1 10.16 z M54.602000000000004 18.44 c-2.88 1.64 -5.16 3.48 -6.56 6.48 c-1.4 2.92 -2.52 6.48 -1.72 9.72 c1.24 0.76 3.08 -0.2 4.4 -0.64 c0.32 1.16 0.36 2.36 0.12 3.48 c0.52 -0.16 1 -0.36 1.32 -0.44 c0.4 1.28 0 3.24 -1.12 4.56 c-0.84 1 -2.08 1.52 -3.52 1.36 c-1.04 -0.08 -2 -0.6 -2.76 -1.32 c-2.2 -0.52 -3.88 -2.48 -4.48 -4.44 c-1.6 -5.16 -0.84 -10.52 0.84 -15.28 c1.76 -4.84 6.92 -10.88 11.4 -13.24 c0.56 0.72 1.04 1.96 1.36 3.28 c0.12 -0.08 0.28 -0.16 0.44 -0.24 c0.84 1.12 2.04 5.72 0.28 6.72 z M52.522000000000006 16.28 c1.48 -0.88 0.56 -4.96 -0.28 -6.32 c-3.64 2 -8.52 7.72 -10.16 12.32 c-1.68 4.6 -2.36 9.76 -0.84 14.64 c0.6 1.88 2.28 3.64 4.28 3.84 c1.4 0.16 2.56 -0.36 3.36 -1.28 c1.04 -1.24 1.4 -2.96 1.16 -4.2 c-0.84 0.32 -1.68 0.64 -2.56 0.64 c-1.12 0.04 -2.28 -0.4 -2.92 -2 c-1.52 -3.64 -0.28 -7.8 1.28 -11.08 c1.48 -3.08 3.76 -4.92 6.68 -6.56 z M70.936 11.559999999999999 c0.36 0.08 -0.04 4.12 -1.4 5.4 c-0.6 0.56 -2.72 0.48 -3.84 0.64 c-1.24 4.48 -3.8 20.52 -3.64 25.08 c-1.2 -0.16 -3.56 -0.52 -4.16 -1.72 c-1.64 -0.52 -2.96 -1.36 -2.92 -2.64 c0.24 -6.64 2.2 -13.04 3.4 -19.56 c-0.52 0.08 -0.96 0.2 -1.4 0.32 c-0.04 -0.32 0.04 -0.92 0.24 -1.64 c-0.84 0.12 -1.76 0.32 -2.88 0.68 c-0.32 -1.96 0.92 -6.64 2.32 -7.16 c3.44 -1.24 9.56 -2.28 12.92 -2.16 c0.2 0.64 0.32 1.24 0.16 2.8 c0.4 -0.04 0.8 -0.04 1.2 -0.04 z M68.896 9.760000000000002 c-3.16 -0.08 -8.56 0.92 -11.88 2.16 c-0.64 0.24 -1.8 3.68 -1.84 4.88 c1.28 -0.32 3.08 -0.48 4.68 -0.88 c-0.56 4 -1.48 7.64 -2.28 11.32 c-0.76 3.68 -1.44 7.36 -1.6 11.12 c-0.04 1.52 2.48 1.92 3.88 2.12 c-0.08 -4.92 2.4 -20.48 3.68 -25.04 c0.68 -0.12 1.52 -0.12 2.28 -0.2 s1.36 -0.2 1.6 -0.44 c0.6 -0.56 1.04 -1.84 1.28 -3.04 c0.16 -1.04 0.36 -1.92 0.2 -2 z M89.124 13.719999999999999 c2.52 2.64 1.8 8.88 -1.4 12.6 c0.12 0.28 0.24 0.56 0.32 0.88 c1.04 1.04 1.92 2.96 1 5.96 c-1.08 3.56 -3.16 7.36 -7.52 9.04 c-1.4 0.52 -4.24 0.36 -4.36 -1.08 c-1.52 -0.24 -2.88 -0.96 -2.8 -2.2 c0.44 -7.04 3.08 -20.56 4.48 -27.72 c2.56 -1.52 6.08 -2.36 8.44 -0.4 c0.92 0.72 1.48 1.76 1.84 2.92 z M86.844 31.119999999999997 c1.12 -3.56 -0.4 -5.48 -1.76 -6.4 c3.76 -3.96 4.48 -10.76 1.56 -13.16 c-1.8 -1.48 -4.76 -0.96 -6.88 0.28 c-1.36 6.8 -3.96 20.2 -4.4 27.12 c-0.08 1.48 2.72 1.56 4.08 1.04 c4.28 -1.6 6.32 -5.36 7.4 -8.88 z M84.324 15.96 c1.6 1.28 0 5.68 -3.04 7.32 c0.48 -2.64 0.92 -4.84 1.48 -7.04 c0.44 -0.48 1.12 -0.6 1.56 -0.28 z M83.644 29.92 c-0.56 2.72 -2.28 4.84 -4.04 4.88 c0.32 -2.6 0.6 -4.96 1 -7.44 c1.56 -0.64 3.4 0.76 3.04 2.56 z M105.25800000000001 12.2 c-1.76 8.36 -2.2 19.48 -1.84 28.36 c-0.56 0.96 -3.92 2.68 -4.24 1.24 c-0.08 -0.28 -0.12 -0.56 -0.16 -0.84 c-1.2 0.36 -2.36 0.2 -2.64 -1 c-0.28 -1.28 -0.28 -2.52 -0.2 -3.8 l-0.52 0.12 c-0.4 1.84 -0.76 4.56 -0.92 5.72 c-0.88 0.36 -2.36 -0.2 -3.16 -1.24 c-1.84 -0.32 -3.6 -1.88 -3.24 -3.92 c1.6 -9.28 4.64 -18.6 6.84 -24.28 c1.04 -2.76 7.6 -4.52 8.92 -2.76 c-0.12 0.64 -0.24 1.48 -0.36 2.16 c0.76 -0.04 1.36 0 1.52 0.24 z M96.098 12.920000000000002 c-2.16 5.64 -5.2 14.88 -6.8 24.08 c-0.32 1.84 2.08 3.24 3.24 2.84 c0.16 -1.2 0.56 -3.8 0.96 -5.72 l3.84 -1 c-0.04 1.72 -0.16 2.8 -0.2 3.8 c-0.04 0.96 0 1.84 0.24 2.84 c0.12 0.6 0.92 0.44 1.76 0.12 c0.92 -0.32 1.8 -0.96 2.08 -1.36 c-0.36 -8.84 0.08 -19.92 1.8 -28.28 c-0.72 -0.44 -6.04 0.4 -6.92 2.68 z M97.61800000000001 28.439999999999998 c-0.96 0.24 -1.96 0.48 -3.12 0.84 c0.88 -3.48 2.08 -6.8 3.04 -10.2 c0.4 -1.52 1.2 -1.64 1.08 -0.8 c-0.48 4.16 -0.76 7.28 -1 10.16 z M124.912 10 c-2.52 10.8 -4.52 23 -5.2 30.56 c-1.32 1.56 -4.52 2.24 -5.08 0.56 l-0.12 -0.36 c-1.24 0.04 -2.28 -0.4 -2.64 -1.36 c-0.6 -1.8 -0.96 -3.72 -1.24 -5.64 c-0.2 1.8 -0.36 3.6 -0.52 5.84 c-1.08 0.88 -2.84 1.44 -4.52 1.28 c0.08 -0.48 0.2 -0.96 0.28 -1.44 c-0.96 0.2 -2 0.28 -3.2 0.2 c0.92 -5.2 1.52 -9.92 2.2 -14.36 c0.68 -4.48 1.48 -8.72 2.68 -12.12 c0.68 -1.88 4.2 -3.76 6.68 -3.16 c0.04 0.88 0.12 1.76 0.16 2.64 c0.4 -0.08 0.76 -0.08 1.08 0 c0.12 2.16 0.24 4.16 0.36 6 c0.6 -3.12 1.28 -6.56 1.92 -9.72 c1.08 -1.16 3.92 -1.96 6.12 -1.56 c-0.2 0.92 -0.4 1.84 -0.6 2.72 c0.64 -0.12 1.24 -0.16 1.64 -0.08 z M122.672 8.16 c-1.16 -0.08 -3.32 0.56 -4 1.24 c-1.16 5.64 -2.2 12.32 -3 16.6 c-0.12 0.68 -0.76 0.92 -0.92 0.16 c-0.32 -1.28 -0.68 -3.76 -0.88 -6.36 c-0.2 -2.52 -0.36 -5.56 -0.6 -9 c-1.44 -0.2 -4.28 1.36 -4.76 2.72 c-1.16 3.28 -1.96 7.44 -2.64 11.92 c-0.68 4.36 -1.28 9 -2.04 13.28 c1.52 0.04 3.08 -0.44 4.08 -1.24 c0.36 -4.64 0.68 -7.64 1.64 -12.2 c0.08 -0.48 0.92 -0.8 1 -0.24 c0.44 2.28 0.64 4.88 0.96 7.36 s0.68 4.88 1.32 6.64 c0.44 1.36 3.32 0.96 4.72 -0.56 c0.64 -7.56 2.64 -19.56 5.12 -30.32 z M139.646 13 c-2.36 5.08 -5.04 10.28 -7.28 14.76 c0.4 4.6 1.12 8.4 2.56 12.72 c-1.16 1.72 -3.36 2.68 -3.88 1.52 c-0.16 -0.32 -0.28 -0.64 -0.4 -1 c-1.08 0.28 -2 0.08 -2.32 -0.68 c-0.36 -0.76 -0.64 -1.56 -0.92 -2.4 c-0.12 1.32 -0.24 2.68 -0.28 4.04 c-1.2 0.56 -3.76 0.24 -3.88 -1.12 c-1.52 -0.16 -2.88 -0.96 -2.8 -2.2 c0.56 -9.52 2.32 -17.64 4.36 -26.68 c0.48 -2.2 4.2 -3.08 6.2 -1.84 c-0.12 0.64 -0.28 1.36 -0.44 2.16 c0.44 -0.08 0.88 -0.04 1.24 0.08 c0.52 -1.12 1.08 -2.28 1.64 -3.4 c2.28 -0.32 3.6 0.56 5.2 1.8 l-0.56 1.24 c0.56 0.24 1.08 0.6 1.56 1 z M137.406 11.079999999999998 c-1 -0.76 -2 -1.36 -3.32 -1.2 c-2.36 4.84 -4.76 10.4 -6.6 13.64 c-0.12 0.24 -0.64 0.24 -0.6 0 c0.6 -3.08 2.4 -9.88 3 -12.88 c-1.16 -0.6 -3.84 0.24 -4.12 1.52 c-2 9 -3.76 17.08 -4.32 26.52 c-0.08 1.16 2.2 1.68 3.48 1.16 c0.12 -2.16 0.28 -4.24 0.56 -6.28 c0.44 -0.88 0.84 -1.76 1.56 -3.16 c0.64 4.88 1.16 7.24 2.2 9.52 c0.44 1.04 2.4 0.08 3.44 -1.44 c-1.4 -4.32 -2.12 -8.12 -2.52 -12.76 c2.24 -4.48 4.88 -9.6 7.24 -14.64 z"/></g>
			</g>
		</svg>
	